<?xml version="1.0" encoding="UTF-8" standalone="no"?><!DOCTYPE svg PUBLIC "-//W3C//DTD SVG 1.1//EN" "http://www.w3.org/Graphics/SVG/1.1/DTD/svg11.dtd"><svg width="100%" height="100%" viewBox="0 0 149 149" version="1.1" xmlns="http://www.w3.org/2000/svg" xmlns:xlink="http://www.w3.org/1999/xlink" xml:space="preserve" xmlns:serif="http://www.serif.com/" style="fill-rule:evenodd;clip-rule:evenodd;stroke-linecap:round;stroke-linejoin:round;stroke-miterlimit:1.5;"><g><path d="M148.976,20.577c0,-11.249 -9.132,-20.381 -20.381,-20.381l-107.32,0c-11.248,0 -20.381,9.132 -20.381,20.381l0,107.319c0,11.249 9.133,20.382 20.381,20.382l107.32,0c11.249,0 20.381,-9.133 20.381,-20.382l0,-107.319Z" style="fill:#2667ff;"/><g><path d="M53.741,74.847l39.08,0" style="fill:none;stroke:#fff;stroke-width:4.5px;"/><g><g><g><path d="M46.58,55.907l-14.483,12.686l49.462,56.464l14.212,-12.449" style="fill:none;stroke:#fff;stroke-width:6px;"/><path d="M82.277,24.636l49.462,56.464l-14.251,12.484" style="fill:none;stroke:#fff;stroke-width:6px;"/></g></g></g><g><g><g><path d="M32.614,54.687l-14.483,12.686l49.462,56.464l14.212,-12.449" style="fill:none;stroke:#fff;stroke-width:6px;"/><path d="M68.311,23.416l49.462,56.464l-14.251,12.484" style="fill:none;stroke:#fff;stroke-width:6px;"/></g></g></g></g></g></svg>