<?xml version="1.0" encoding="UTF-8" standalone="no"?><!DOCTYPE svg PUBLIC "-//W3C//DTD SVG 1.1//EN" "http://www.w3.org/Graphics/SVG/1.1/DTD/svg11.dtd"><svg width="100%" height="100%" viewBox="0 0 1920 541" version="1.1" xmlns="http://www.w3.org/2000/svg" xmlns:xlink="http://www.w3.org/1999/xlink" xml:space="preserve" xmlns:serif="http://www.serif.com/" style="fill-rule:evenodd;clip-rule:evenodd;stroke-linecap:round;stroke-linejoin:round;stroke-miterlimit:1.5;"><rect x="0" y="0.105" width="1920" height="540" style="fill:#001b5a;"/><clipPath id="_clip1"><rect x="0" y="0.105" width="1920" height="540"/></clipPath><g clip-path="url(#_clip1)"><g><path d="M420.82,745.903l49.501,-255.973l-710.35,-137.37l-49.501,255.973l710.35,137.37Z" style="fill:#2667ff;stroke:#2667ff;stroke-width:10px;"/><path d="M493.989,701.41l49.501,-255.973l-710.349,-137.37l-49.501,255.973l710.349,137.37Z" style="fill:none;stroke:#2667ff;stroke-width:10px;"/></g><g><path d="M1253.84,482.18l49.501,-255.973l-710.35,-137.37l-49.501,255.973l710.35,137.37Z" style="fill:none;stroke:#2667ff;stroke-width:10px;"/><path d="M1327.01,437.687l49.501,-255.973l-710.35,-137.37l-49.501,255.973l710.35,137.37Z" style="fill:none;stroke:#2667ff;stroke-width:10px;"/></g><g><path d="M2062.15,219.024l49.501,-255.974l-710.349,-137.37l-49.501,255.974l710.349,137.37Z" style="fill:none;stroke:#2667ff;stroke-width:10px;"/><path d="M2135.32,174.53l49.501,-255.973l-710.349,-137.37l-49.501,255.974l710.349,137.369Z" style="fill:#2667ff;stroke:#2667ff;stroke-width:10px;"/></g><circle cx="1715.18" cy="596.664" r="147.613" style="fill:none;stroke:#2667ff;stroke-width:10px;"/><circle cx="184.727" cy="-50" r="147.613" style="fill:none;stroke:#2667ff;stroke-width:10px;"/></g></svg>